<svg xmlns="http://www.w3.org/2000/svg" viewBox="0 0 64 64" id="faq">
  <path d="M14,57a1,1,0,0,1-.39-.08A1,1,0,0,1,13,56V47H9a5,5,0,0,1-5-5V18a5,5,0,0,1,5-5H49a5,5,0,0,1,5,5V42a5,5,0,0,1-5,5H24.84L14.69,56.72A1,1,0,0,1,14,57ZM9,15a3,3,0,0,0-3,3V42a3,3,0,0,0,3,3h5a1,1,0,0,1,1,1v7.66l8.75-8.38a1,1,0,0,1,.69-.28H49a3,3,0,0,0,3-3V18a3,3,0,0,0-3-3ZM60,36V12a5,5,0,0,0-5-5H15a5,5,0,0,0-5,5h2a3,3,0,0,1,3-3H55a3,3,0,0,1,3,3V36a3,3,0,0,1-3,3v2A5,5,0,0,0,60,36ZM30,31.92A6,6,0,1,0,23,26h2a4,4,0,1,1,4,4,1,1,0,0,0-1,1v5h2ZM30,38H28v2h2Z"></path>
</svg>
