<svg width="20" height="14" viewBox="0 0 20 14" fill="none" xmlns="http://www.w3.org/2000/svg">
<path d="M19 2.13142C18.6962 1.9958 18.3588 1.95169 18.0299 2.00456C17.701 2.05744 17.395 2.20497 17.15 2.42883L15 4.41154V2.97407C15 2.1853 14.6839 1.42883 14.1213 0.871086C13.5587 0.313339 12.7956 0 12 0H3C2.20435 0 1.44129 0.313339 0.87868 0.871086C0.316071 1.42883 0 2.1853 0 2.97407V10.9049C0 11.6937 0.316071 12.4502 0.87868 13.0079C1.44129 13.5657 2.20435 13.879 3 13.879H12C12.7956 13.879 13.5587 13.5657 14.1213 13.0079C14.6839 12.4502 15 11.6937 15 10.9049V9.46747L17.16 11.4502C17.478 11.7355 17.8911 11.8944 18.32 11.8963C18.558 11.8957 18.7932 11.8451 19.01 11.7476C19.3049 11.6293 19.5576 11.4265 19.7357 11.1652C19.9139 10.9039 20.0094 10.5958 20.01 10.2804V3.59863C20.0086 3.28208 19.9116 2.97319 19.7316 2.71172C19.5516 2.45025 19.2968 2.24815 19 2.13142ZM13 10.9049C13 11.1679 12.8946 11.42 12.7071 11.6059C12.5196 11.7919 12.2652 11.8963 12 11.8963H3C2.73478 11.8963 2.48043 11.7919 2.29289 11.6059C2.10536 11.42 2 11.1679 2 10.9049V2.97407C2 2.71115 2.10536 2.45899 2.29289 2.27308C2.48043 2.08716 2.73478 1.98272 3 1.98272H12C12.2652 1.98272 12.5196 2.08716 12.7071 2.27308C12.8946 2.45899 13 2.71115 13 2.97407V10.9049ZM18 9.51704L15.19 6.93951L18 4.36197V9.51704Z" fill="black"/>
</svg>
